
<svg viewBox="0 0 238.95 132.5" xmlns="http://www.w3.org/2000/svg" xmlns:xlink="http://www.w3.org/1999/xlink"><linearGradient id="a" gradientUnits="userSpaceOnUse" x1="15.43" x2="223.6" y1="44.21" y2="44.21"><stop offset=".21" stop-color="#ad2960"/><stop offset=".25" stop-color="#b22761"/><stop offset=".5" stop-color="#ce1e64"/><stop offset=".72" stop-color="#e01866"/><stop offset=".88" stop-color="#e61667"/></linearGradient><linearGradient id="b" x1="123.49" x2="217.52" xlink:href="#a" y1="40.86" y2="40.86"/><path d="M-18.11-26.7h275.17v185.9H-18.11z" fill="none"/><g fill="#e61667"><path d="M38.4 82.71l-9.45 18.82-9.41-18.76-.04-.06h-3.73l11.42 22.45v11.43h3.62V105.2l11.55-22.49zM55.59 90.79a12.24 12.24 0 0 0-9.73 3.79 13.13 13.13 0 0 0 .09 18.89 12.54 12.54 0 0 0 8.94 3.74h.17a13 13 0 0 0 12.19-8.85v-.14h-3.7v.06a8.76 8.76 0 0 1-8.33 5.39 9.46 9.46 0 0 1-6.52-2.37 9.05 9.05 0 0 1-3.14-6h22.31v-1.9a12.05 12.05 0 0 0-3.57-8.46 13 13 0 0 0-8.71-4.15zM64.35 102h-18.8a9.67 9.67 0 0 1 15.6-5.44 9.65 9.65 0 0 1 3.2 5.44zM92.25 94.93a12.65 12.65 0 0 0-9-4.05 12.09 12.09 0 0 0-9.38 3.74 13.24 13.24 0 0 0-.26 18.53 12.47 12.47 0 0 0 8.85 4H83a12.24 12.24 0 0 0 9.37-4.28v3.71h3.45V104a12 12 0 0 0-3.57-9.07zm0 8.81a9.63 9.63 0 0 1-2.81 7.13 8.64 8.64 0 0 1-6.9 2.8 9.07 9.07 0 0 1-6.43-3.06 9.58 9.58 0 0 1-2.55-6.82 9.25 9.25 0 0 1 2.81-6.69A9 9 0 0 1 83 94.33a8.58 8.58 0 0 1 6.43 2.76 9.61 9.61 0 0 1 2.8 6.65zM121.23 94.88a12.65 12.65 0 0 0-18.23-.17 12.8 12.8 0 0 0-3.91 9.29v21.28h3.45V113a12.62 12.62 0 0 0 9.1 4.24 12.16 12.16 0 0 0 9.34-3.74 13.1 13.1 0 0 0 3.92-9.46 12.85 12.85 0 0 0-3.67-9.16zm.12 9.37a9.28 9.28 0 0 1-2.85 6.69 9 9 0 0 1-6.65 2.76 8.62 8.62 0 0 1-6.47-2.76 9.9 9.9 0 0 1 0-13.73 8.54 8.54 0 0 1 6.44-2.82h.5a8.75 8.75 0 0 1 6.43 3.06 9.42 9.42 0 0 1 2.6 6.81z"/></g><path d="M152.16 104.17a12.14 12.14 0 0 1-3.84 9.3 12.34 12.34 0 0 1-9.34 3.71 12.18 12.18 0 0 1-8.82-3.93 12.66 12.66 0 0 1-3.58-9 12.79 12.79 0 0 1 3.89-9.34 11.91 11.91 0 0 1 9.25-3.75 12.32 12.32 0 0 1 9.17 4.41V83h3.27zM139 113.91a8.55 8.55 0 0 0 7-2.84 9.5 9.5 0 0 0 2.79-7.16 9.67 9.67 0 0 0-2.79-6.72 8.59 8.59 0 0 0-6.5-2.79 9.06 9.06 0 0 0-6.77 2.79 9.37 9.37 0 0 0-2.84 6.77 9.69 9.69 0 0 0 2.62 6.9 8.85 8.85 0 0 0 6.49 3.05zM181.23 116.48H178v-3.88a12.14 12.14 0 0 1-10 4.4 12.3 12.3 0 0 1-8.78-4 13.13 13.13 0 0 1 .26-18.38 11.91 11.91 0 0 1 9.3-3.71 12.46 12.46 0 0 1 8.91 4 11.87 11.87 0 0 1 3.49 9v12.49zM159 103.78a9.65 9.65 0 0 0 2.58 6.9 9.14 9.14 0 0 0 6.5 3.1 8.69 8.69 0 0 0 7-2.84 9.8 9.8 0 0 0 2.84-7.2 9.67 9.67 0 0 0-2.8-6.74 8.66 8.66 0 0 0-6.5-2.79 9.16 9.16 0 0 0-6.77 2.79 9.37 9.37 0 0 0-2.85 6.78zM193.8 117c-6.07 0-9.08-2.58-9.08-7.73v-26.4h3.36v8.69h5.72v3.1h-5.72v14.06c0 3.71 1.92 5.54 5.72 5.54zM222.27 116.48H219v-3.88a12.14 12.14 0 0 1-10 4.45 12.3 12.3 0 0 1-8.77-4 13.13 13.13 0 0 1 .26-18.38 11.91 11.91 0 0 1 9.3-3.71 12.46 12.46 0 0 1 8.91 4 11.87 11.87 0 0 1 3.49 9v12.49zM200 103.78a9.65 9.65 0 0 0 2.58 6.9 9.13 9.13 0 0 0 6.5 3.1 8.69 8.69 0 0 0 7-2.84 9.81 9.81 0 0 0 2.84-7.2 9.67 9.67 0 0 0-2.76-6.74 8.66 8.66 0 0 0-6.51-2.79 9.16 9.16 0 0 0-6.77 2.79 9.37 9.37 0 0 0-2.88 6.78z" fill="#fff"/><path d="M206.8 34.41c0-.63.07-1.27.07-1.92a25.3 25.3 0 0 0-48.12-10.95 21.91 21.91 0 0 0-3.17-.24 22.57 22.57 0 0 0-22.41 19.82c-5.79.14-9.55 1.82-12.16 5.44a2.07 2.07 0 0 0-.55.76l-.06.22a1.21 1.21 0 0 0-.05.32 1.69 1.69 0 0 0 1.65 1.71 1.65 1.65 0 0 0 1.35-.72 13.24 13.24 0 0 1 12.36-4.59h.22v-.22-.11-.08a19.55 19.55 0 0 1 24.41-19h.16l.06-.16a22.44 22.44 0 0 1 21-14.63c.58 0 1.17 0 1.75.07A22.55 22.55 0 0 1 203 26.08a21.94 21.94 0 0 1 .54 10.76v.22h.09a16.95 16.95 0 0 1 16.64 18.22c-.64 8.81-8.33 15.71-17.5 15.71h-90.58a2 2 0 0 1-1.72-.93L107.14 65l-1-1.66-3.53 9.4-4.16-15.4-4.05 17.27-7.8-20.78-4.1 17.47-3.61-5.77-3.6 7.67-4-12.78-4.21 11.2-3.8-6.08-3.68 7.83-3.94-10.5-4.49 10.46-3-7.56-4.23 4.51-2.66-2.83a2.79 2.79 0 0 0-2-.88H16.82a1 1 0 0 0-1 1 1 1 0 0 0 1 1h21.71a2.41 2.41 0 0 1 1.76.76l3.61 3.84 3.57-3.8 3.65 9.06 4.43-10.32 3.85 10.23 4.12-8.78 4 6.39 3.6-9.58 3.8 12.15 4.21-9 4.19 6.7L87 60.47l7.8 20.78 3.75-16L102.26 79l4.13-11 3 4.2.6.79A2.45 2.45 0 0 0 112 74h91.3a19.93 19.93 0 0 0 3.55-39.53z" fill="url(#a)"/><path d="M123.71 57.45a10 10 0 0 0 10.15 11h69.16a14.63 14.63 0 0 0 2.35-.16 14.26 14.26 0 0 0 12-14.8A14.44 14.44 0 0 0 203.63 40a12.56 12.56 0 0 0-2.33.11 20.59 20.59 0 1 0-39.46-11.75 20.29 20.29 0 0 0-24.38 19.89v.46a10.18 10.18 0 0 0-4.27-.62 10.3 10.3 0 0 0-9.48 9.36z" fill="url(#b)"/><path d="M221.35 86.62V79h3.24a5.54 5.54 0 0 1 1.77.2 1.75 1.75 0 0 1 .89.73 2.2 2.2 0 0 1 .33 1.2 2 2 0 0 1-.51 1.42 2.42 2.42 0 0 1-1.51.7 3.53 3.53 0 0 1 .82.64 8.78 8.78 0 0 1 .88 1.24l.93 1.49h-1.84l-1.1-1.62a10.82 10.82 0 0 0-.81-1.12 1.18 1.18 0 0 0-.46-.32 2.47 2.47 0 0 0-.77-.09h-.31v3.18zm1.54-4.4H224a5.83 5.83 0 0 0 1.38-.09.83.83 0 0 0 .43-.32 1 1 0 0 0 .16-.57.92.92 0 0 0-.21-.62.94.94 0 0 0-.58-.3H222.86z" fill="#fff"/><path d="M231.09 83.1a6.73 6.73 0 1 1-6.73-6.73 6.73 6.73 0 0 1 6.73 6.73zm-6.73 5.68a5.68 5.68 0 1 0-5.68-5.68 5.69 5.69 0 0 0 5.68 5.68z" fill="#fff"/></svg>